<svg width="19" height="15" viewBox="0 0 19 15" fill="none" xmlns="http://www.w3.org/2000/svg">
<path d="M17.2372 6.62466V2.39352C17.2372 1.46071 16.4782 0.701782 15.5454 0.701782H3.45459C2.52177 0.701782 1.76284 1.46071 1.76284 2.39352V6.62466C0.74768 6.90569 0 7.83714 0 8.94047V12.1554C0 12.4669 0.252566 12.7194 0.564062 12.7194H1.76284V13.7341C1.76284 14.0456 2.01541 14.2982 2.32691 14.2982C2.6384 14.2982 2.89097 14.0456 2.89097 13.7341V12.7194H16.109V13.7341C16.109 14.0456 16.3616 14.2982 16.6731 14.2982C16.9846 14.2982 17.2372 14.0456 17.2372 13.7341V12.7194H18.4359C18.7474 12.7194 19 12.4669 19 12.1554V8.94047C19 7.83714 18.2523 6.90569 17.2372 6.62466ZM2.89097 2.39352C2.89097 2.08277 3.14383 1.82991 3.45459 1.82991H15.5455C15.8562 1.82991 16.1091 2.08277 16.1091 2.39352V6.53738H14.7874V5.40514C14.7874 4.42059 13.9864 3.61962 13.0019 3.61962H10.7215C10.2493 3.61962 9.81966 3.80416 9.50004 4.10456C9.18041 3.8042 8.75076 3.61962 8.27858 3.61962H5.99817C5.01362 3.61962 4.21266 4.42062 4.21266 5.40514V6.53738H2.89097V2.39352ZM13.6593 5.40514V6.53738H10.0641V5.40514C10.0641 5.04261 10.359 4.74774 10.7215 4.74774H13.0019C13.3644 4.74774 13.6593 5.04265 13.6593 5.40514ZM8.9359 5.40514V6.53738H5.34067V5.40514C5.34067 5.04261 5.63562 4.74774 5.99806 4.74774H8.27847C8.64099 4.74774 8.9359 5.04265 8.9359 5.40514ZM17.8719 11.5913H1.12812V8.94047C1.12812 8.23747 1.70005 7.6655 2.40309 7.6655H16.5969C17.2999 7.6655 17.8719 8.23743 17.8719 8.94047V11.5913Z" fill="#696969"/>
</svg>
